<svg width="100%" height="300" viewBox="0 0 800 300" xmlns="http://www.w3.org/2000/svg" xmlns:xlink="http://www.w3.org/1999/xlink">
  <defs>
    <!-- Dark gradient background -->
    <linearGradient id="bgGradient" x1="0%" y1="0%" x2="100%" y2="100%">
      <stop offset="0%" stop-color="#0f172a" />
      <stop offset="100%" stop-color="#1e293b" />
    </linearGradient>

    <!-- Tech Icons -->
    <symbol id="react" viewBox="0 0 24 24"><path fill="#61DAFB" d="M12 15.39C8.24 15.39 5.1 14.66 5.1 13.83c0-.83 3.14-1.56 6.9-1.56 3.75 0 6.9.73 6.9 1.56 0 .83-3.15 1.56-6.9 1.56zM12 10.5c-3.76 0-6.9-.79-6.9-1.78S8.24 6.94 12 6.94c3.75 0 6.9.79 6.9 1.78s-3.15 1.78-6.9 1.78zM12 5.1c-3.76 0-6.9-.77-6.9-1.7S8.24 1.9 12 1.9c3.75 0 6.9.77 6.9 1.7s-3.15 1.7-6.9 1.7z"/></symbol>
    <symbol id="js" viewBox="0 0 24 24"><path fill="#F7DF1E" d="M3 3h18v18H3V3zm9 13.5v-2H8v-2h4v-1.5l3 3-3 3zm4-6v2h4v2h-4v1.5l-3-3 3-3z"/></symbol>
    <symbol id="typescript" viewBox="0 0 24 24"><path fill="#3178C6" d="M3 3h18v18H3V3zm10.8 12.28v1.43h-2.74v-1.43c0-.44 0-.78-.01-1.02 0-.26-.02-.46-.04-.61-.02-.15-.05-.26-.1-.35-.05-.09-.12-.14-.21-.18-.1-.04-.23-.06-.4-.06-.2 0-.36.02-.49.07-.13.05-.23.13-.3.23-.07.1-.11.23-.12.39-.01.16-.01.34-.01.54h1.53c0-.19 0-.33.01-.42.01-.09.03-.16.06-.21.03-.05.08-.08.15-.1.07-.02.16-.03.27-.03.11 0 .2.01.27.03.07.02.12.05.15.1.03.05.05.12.06.21.01.09.01.23.01.42v1.02c0 .4-.02.73-.06.99-.04.26-.11.49-.21.69-.1.2-.23.37-.39.5-.16.13-.36.23-.59.29-.23.06-.5.1-.81.1-.58 0-1.02-.07-1.32-.21-.3-.14-.53-.33-.7-.57-.17-.24-.27-.52-.31-.84-.04-.32-.06-.66-.06-1.02v-1.28H8.5v2.78h1.68v-.96h.02c.15.3.36.56.63.76.27.2.6.31 1 .31 1.38 0 .41-.05.75-.16 1.03-.11.28-.27.51-.47.7-.2.19-.45.33-.74.42-.29.09-.63.14-1.02.14-.62 0-1.11-.09-1.47-.28-.36-.19-.62-.43-.79-.73-.17-.3-.27-.63-.31-1.01-.04-.38-.06-.78-.06-1.2V13.5h1.53v1.04h.02c.15-.3.36-.57.63-.77.27-.2.6-.3 1-.3.4 0 .72.1.96.3.24.2.4.45.49.77.09.32.14.7.14 1.14v1.28z"/></symbol>
    <symbol id="nextjs" viewBox="0 0 24 24"><path fill="#ffffff" d="M12 2C6.48 2 2 6.48 2 12s4.48 10 10 10 10-4.48 10-10S17.52 2 12 2zm0 18c-4.41 0-8-3.59-8-8s3.59-8 8-8 8 3.59 8 8-3.59 8-8 8zm4.17-7.24l-2.09-2.09 2.09-2.09-1.41-1.41-2.09 2.09-2.09-2.09-1.41 1.41 2.09 2.09-2.09 2.09 1.41 1.41 2.09-2.09 2.09 2.09 1.41-1.41z"/></symbol>
    <symbol id="redux" viewBox="0 0 24 24"><path fill="#764ABC" d="M16.23 18l-4.23-2.55L7.77 18l.73-4.79L5 9.8l4.93-.6L12 4.8l2.07 4.4 4.93.6-3.5 3.41.73 4.79zM12 20.27l4.58-2.77-.71-4.69 3-2.93-4.15-.5L12 3.8 9.85 9.98l-4.15.5 3 2.93-.71 4.69L12 20.27z"/></symbol>
    <symbol id="mongodb" viewBox="0 0 24 24"><path fill="#47A248" d="M12 2C6.48 2 2 6.48 2 12s4.48 10 10 10 10-4.48 10-10S17.52 2 12 2zm0 18c-4.41 0-8-3.59-8-8s3.59-8 8-8 8 3.59 8 8-3.59 8-8 8zm0-14c-3.31 0-6 2.69-6 6s2.69 6 6 6 6-2.69 6-6-2.69-6-6-6zm0 10c-2.21 0-4-1.79-4-4s1.79-4 4-4 4 1.79 4 4-1.79 4-4 4z"/></symbol>
    <symbol id="nodejs" viewBox="0 0 24 24"><path fill="#339933" d="M12 2C6.48 2 2 6.48 2 12s4.48 10 10 10 10-4.48 10-10S17.52 2 12 2zm0 18c-4.41 0-8-3.59-8-8s3.59-8 8-8 8 3.59 8 8-3.59 8-8 8zm0-14c-3.31 0-6 2.69-6 6s2.69 6 6 6 6-2.69 6-6-2.69-6-6-6zm0 10c-2.21 0-4-1.79-4-4s1.79-4 4-4 4 1.79 4 4-1.79 4-4 4z"/></symbol>
    <symbol id="express" viewBox="0 0 24 24"><path fill="#000000" d="M12 2C6.48 2 2 6.48 2 12s4.48 10 10 10 10-4.48 10-10S17.52 2 12 2zm0 18c-4.41 0-8-3.59-8-8s3.59-8 8-8 8 3.59 8 8-3.59 8-8 8zm0-14c-3.31 0-6 2.69-6 6s2.69 6 6 6 6-2.69 6-6-2.69-6-6-6zm0 10c-2.21 0-4-1.79-4-4s1.79-4 4-4 4 1.79 4 4-1.79 4-4 4z"/></symbol>
    <symbol id="html" viewBox="0 0 24 24"><path fill="#E34F26" d="M12 2C6.48 2 2 6.48 2 12s4.48 10 10 10 10-4.48 10-10S17.52 2 12 2zm0 18c-4.41 0-8-3.59-8-8s3.59-8 8-8 8 3.59 8 8-3.59 8-8 8zm0-14c-3.31 0-6 2.69-6 6s2.69 6 6 6 6-2.69 6-6-2.69-6-6-6zm0 10c-2.21 0-4-1.79-4-4s1.79-4 4-4 4 1.79 4 4-1.79 4-4 4z"/></symbol>
    <symbol id="css" viewBox="0 0 24 24"><path fill="#1572B6" d="M12 2C6.48 2 2 6.48 2 12s4.48 10 10 10 10-4.48 10-10S17.52 2 12 2zm0 18c-4.41 0-8-3.59-8-8s3.59-8 8-8 8 3.59 8 8-3.59 8-8 8zm0-14c-3.31 0-6 2.69-6 6s2.69 6 6 6 6-2.69 6-6-2.69-6-6-6zm0 10c-2.21 0-4-1.79-4-4s1.79-4 4-4 4 1.79 4 4-1.79 4-4 4z"/></symbol>
    <symbol id="tailwind" viewBox="0 0 24 24"><path fill="#38B2AC" d="M12 2C6.48 2 2 6.48 2 12s4.48 10 10 10 10-4.48 10-10S17.52 2 12 2zm0 18c-4.41 0-8-3.59-8-8s3.59-8 8-8 8 3.59 8 8-3.59 8-8 8zm0-14c-3.31 0-6 2.69-6 6s2.69 6 6 6 6-2.69 6-6-2.69-6-6-6zm0 10c-2.21 0-4-1.79-4-4s1.79-4 4-4 4 1.79 4 4-1.79 4-4 4z"/></symbol>
  </defs>

  <!-- Background -->
  <rect width="100%" height="100%" fill="url(#bgGradient)" rx="10" />

  <!-- Centered Content -->
  <g transform="translate(400, 100)" text-anchor="middle">
    <!-- Name -->
    <text font-size="32" font-weight="700" fill="#ffffff" font-family="'Segoe UI', sans-serif" dy="-30">
      HUMAYUN KABIR
    </text>
    <!-- Title -->
    <text font-size="18" fill="#e0e0e0" font-family="'Segoe UI', sans-serif" dy="20">
      Vision-Driven CSE Graduate | Full-Stack Developer
    </text>
  </g>

  <!-- Tech Logos (Centered Grid) -->
  <g transform="translate(400, 180)" text-anchor="middle">
    <!-- Row 1 -->
    <g transform="translate(-180, 0)">
      <use xlink:href="#react" width="30" height="30" x="-90" y="0" />
      <use xlink:href="#js" width="30" height="30" x="-45" y="0" />
      <use xlink:href="#typescript" width="30" height="30" x="0" y="0" />
      <use xlink:href="#nextjs" width="30" height="30" x="45" y="0" />
      <use xlink:href="#redux" width="30" height="30" x="90" y="0" />
    </g>
    <!-- Row 2 -->
    <g transform="translate(-180, 50)">
      <use xlink:href="#mongodb" width="30" height="30" x="-90" y="0" />
      <use xlink:href="#nodejs" width="30" height="30" x="-45" y="0" />
      <use xlink:href="#express" width="30" height="30" x="0" y="0" />
      <use xlink:href="#html" width="30" height="30" x="45" y="0" />
      <use xlink:href="#css" width="30" height="30" x="90" y="0" />
      <use xlink:href="#tailwind" width="30" height="30" x="135" y="0" />
    </g>
  </g>
</svg>
